<svg width="0" height="0" class="hidden">
  <symbol version="1.1" xml:space="preserve" xmlns="http://www.w3.org/2000/svg" xmlnsSerif="http://www.serif.com/" xmlns:xlink="http://www.w3.org/1999/xlink" viewBox="0 0 512 512" id="youtube_icon">
    <path d="M501.303,132.765c-5.887,-22.03 -23.235,-39.377 -45.265,-45.265c-39.932,-10.7 -200.038,-10.7 -200.038,-10.7c0,0 -160.107,0 -200.039,10.7c-22.026,5.888 -39.377,23.235 -45.264,45.265c-10.697,39.928 -10.697,123.238 -10.697,123.238c0,0 0,83.308 10.697,123.232c5.887,22.03 23.238,39.382 45.264,45.269c39.932,10.696 200.039,10.696 200.039,10.696c0,0 160.106,0 200.038,-10.696c22.03,-5.887 39.378,-23.239 45.265,-45.269c10.696,-39.924 10.696,-123.232 10.696,-123.232c0,0 0,-83.31 -10.696,-123.238Zm-296.506,200.039l0,-153.603l133.019,76.802l-133.019,76.801Z"></path>
  </symbol>
  <symbol xmlns="http://www.w3.org/2000/svg" viewBox="0 0 32 32" id="telegram_icon">
    <path d="M 26.070313 3.996094 C 25.734375 4.011719 25.417969 4.109375 25.136719 4.21875 L 25.132813 4.21875 C 24.847656 4.332031 23.492188 4.902344 21.433594 5.765625 C 19.375 6.632813 16.703125 7.757813 14.050781 8.875 C 8.753906 11.105469 3.546875 13.300781 3.546875 13.300781 L 3.609375 13.277344 C 3.609375 13.277344 3.25 13.394531 2.875 13.652344 C 2.683594 13.777344 2.472656 13.949219 2.289063 14.21875 C 2.105469 14.488281 1.957031 14.902344 2.011719 15.328125 C 2.101563 16.050781 2.570313 16.484375 2.90625 16.722656 C 3.246094 16.964844 3.570313 17.078125 3.570313 17.078125 L 3.578125 17.078125 L 8.460938 18.722656 C 8.679688 19.425781 9.949219 23.597656 10.253906 24.558594 C 10.433594 25.132813 10.609375 25.492188 10.828125 25.765625 C 10.933594 25.90625 11.058594 26.023438 11.207031 26.117188 C 11.265625 26.152344 11.328125 26.179688 11.390625 26.203125 C 11.410156 26.214844 11.429688 26.21875 11.453125 26.222656 L 11.402344 26.210938 C 11.417969 26.214844 11.429688 26.226563 11.441406 26.230469 C 11.480469 26.242188 11.507813 26.246094 11.558594 26.253906 C 12.332031 26.488281 12.953125 26.007813 12.953125 26.007813 L 12.988281 25.980469 L 15.871094 23.355469 L 20.703125 27.0625 L 20.8125 27.109375 C 21.820313 27.550781 22.839844 27.304688 23.378906 26.871094 C 23.921875 26.433594 24.132813 25.875 24.132813 25.875 L 24.167969 25.785156 L 27.902344 6.65625 C 28.007813 6.183594 28.035156 5.742188 27.917969 5.3125 C 27.800781 4.882813 27.5 4.480469 27.136719 4.265625 C 26.769531 4.046875 26.40625 3.980469 26.070313 3.996094 Z M 25.96875 6.046875 C 25.964844 6.109375 25.976563 6.101563 25.949219 6.222656 L 25.949219 6.234375 L 22.25 25.164063 C 22.234375 25.191406 22.207031 25.25 22.132813 25.308594 C 22.054688 25.371094 21.992188 25.410156 21.667969 25.28125 L 15.757813 20.75 L 12.1875 24.003906 L 12.9375 19.214844 C 12.9375 19.214844 22.195313 10.585938 22.59375 10.214844 C 22.992188 9.84375 22.859375 9.765625 22.859375 9.765625 C 22.886719 9.3125 22.257813 9.632813 22.257813 9.632813 L 10.082031 17.175781 L 10.078125 17.15625 L 4.242188 15.191406 L 4.242188 15.1875 C 4.238281 15.1875 4.230469 15.183594 4.226563 15.183594 C 4.230469 15.183594 4.257813 15.171875 4.257813 15.171875 L 4.289063 15.15625 L 4.320313 15.144531 C 4.320313 15.144531 9.53125 12.949219 14.828125 10.71875 C 17.480469 9.601563 20.152344 8.476563 22.207031 7.609375 C 24.261719 6.746094 25.78125 6.113281 25.867188 6.078125 C 25.949219 6.046875 25.910156 6.046875 25.96875 6.046875 Z"></path>
  </symbol>
  <symbol xmlns="http://www.w3.org/2000/svg" viewBox="0 0 576 512" id="vk_icon">
    <path d="M545 117.7c3.7-12.5 0-21.7-17.8-21.7h-58.9c-15 0-21.9 7.9-25.6 16.7 0 0-30 73.1-72.4 120.5-13.7 13.7-20 18.1-27.5 18.1-3.7 0-9.4-4.4-9.4-16.9V117.7c0-15-4.2-21.7-16.6-21.7h-92.6c-9.4 0-15 7-15 13.5 0 14.2 21.2 17.5 23.4 57.5v86.8c0 19-3.4 22.5-10.9 22.5-20 0-68.6-73.4-97.4-157.4-5.8-16.3-11.5-22.9-26.6-22.9H38.8c-16.8 0-20.2 7.9-20.2 16.7 0 15.6 20 93.1 93.1 195.5C160.4 378.1 229 416 291.4 416c37.5 0 42.1-8.4 42.1-22.9 0-66.8-3.4-73.1 15.4-73.1 8.7 0 23.7 4.4 58.7 38.1 40 40 46.6 57.9 69 57.9h58.9c16.8 0 25.3-8.4 20.4-25-11.2-34.9-86.9-106.7-90.3-111.5-8.7-11.2-6.2-16.2 0-26.2.1-.1 72-101.3 79.4-135.6z"></path>
  </symbol>
  <symbol id="whatsapp_icon" version="1.1" xml:space="preserve" xmlns="http://www.w3.org/2000/svg" xmlns:xlink="http://www.w3.org/1999/xlink" viewBox="0 0 56.693 56.693">
    <g>
      <path d="M46.3802,10.7138c-4.6512-4.6565-10.8365-7.222-17.4266-7.2247c-13.5785,0-24.63,11.0506-24.6353,24.6333   c-0.0019,4.342,1.1325,8.58,3.2884,12.3159l-3.495,12.7657l13.0595-3.4257c3.5982,1.9626,7.6495,2.9971,11.7726,2.9985h0.01   c0.0008,0-0.0006,0,0.0002,0c13.5771,0,24.6293-11.0517,24.635-24.6347C53.5914,21.5595,51.0313,15.3701,46.3802,10.7138z    M28.9537,48.6163h-0.0083c-3.674-0.0014-7.2777-0.9886-10.4215-2.8541l-0.7476-0.4437l-7.7497,2.0328l2.0686-7.5558   l-0.4869-0.7748c-2.0496-3.26-3.1321-7.028-3.1305-10.8969c0.0044-11.2894,9.19-20.474,20.4842-20.474   c5.469,0.0017,10.6101,2.1344,14.476,6.0047c3.8658,3.8703,5.9936,9.0148,5.9914,14.4859   C49.4248,39.4307,40.2395,48.6163,28.9537,48.6163z"></path>
      <path d="M40.1851,33.281c-0.6155-0.3081-3.6419-1.797-4.2061-2.0026c-0.5642-0.2054-0.9746-0.3081-1.3849,0.3081   c-0.4103,0.6161-1.59,2.0027-1.9491,2.4136c-0.359,0.4106-0.7182,0.4623-1.3336,0.1539c-0.6155-0.3081-2.5989-0.958-4.95-3.0551   c-1.83-1.6323-3.0653-3.6479-3.4245-4.2643c-0.359-0.6161-0.0382-0.9492,0.27-1.2562c0.2769-0.2759,0.6156-0.7189,0.9234-1.0784   c0.3077-0.3593,0.4103-0.6163,0.6155-1.0268c0.2052-0.4109,0.1027-0.7704-0.0513-1.0784   c-0.1539-0.3081-1.3849-3.3379-1.8978-4.5706c-0.4998-1.2001-1.0072-1.0375-1.3851-1.0566   c-0.3585-0.0179-0.7694-0.0216-1.1797-0.0216s-1.0773,0.1541-1.6414,0.7702c-0.5642,0.6163-2.1545,2.1056-2.1545,5.1351   c0,3.0299,2.2057,5.9569,2.5135,6.3676c0.3077,0.411,4.3405,6.6282,10.5153,9.2945c1.4686,0.6343,2.6152,1.013,3.5091,1.2966   c1.4746,0.4686,2.8165,0.4024,3.8771,0.2439c1.1827-0.1767,3.6419-1.489,4.1548-2.9267c0.513-1.438,0.513-2.6706,0.359-2.9272   C41.211,33.7433,40.8006,33.5892,40.1851,33.281z"></path>
    </g>
  </symbol>
</svg>